
<svg xmlns="http://www.w3.org/2000/svg" xmlns:xlink="http://www.w3.org/1999/xlink" version="1.1" x="0px" y="0px" viewBox="0 0 100 100" enable-background="new 0 0 100 100" xml:space="preserve"><g><path fill="#856B58" d="M50.9,36.1h-2.7v-2.8h-3.1v2.8h-2.7v-2.8h-3.2v2.8h-2.7v-2.8h-2.8V63h19.9V33.3h-2.8V36.1z M50.9,59.1H36.6   V40h14.3V59.1z"/><path fill="#856B58" d="M29.3,36.2L26.6,35v-2.6l-2.8-0.9v2.4L21,32.7v-2.2l-2.9-1v2.7l-2.7-1.2v-2.4l-2.8-0.9v26.8l19.6,8.2V34.3   l-2.8-1V36.2z M19.4,34l4.2,1.9v6.6l-4.2-1.8V34z M24.7,57.8l-7.2-3.2v-1.4l7.2,3.2V57.8z M19.2,52.4v-6.7l4.2,1.9v6.6L19.2,52.4z    M24.9,46.1l-7.2-3.2v-1.4l7.2,3.2V46.1z"/><polygon fill="#856B58" points="57.3,7.5 79.4,12.9 83.5,11.6 57.3,5 15.3,17.4 19,18.6  "/><rect x="33.8" y="90.4" fill="#856B58" width="19.9" height="4.6"/><polygon fill="#856B58" points="10.1,82.7 32.1,94.2 32.1,89.9 10.1,78.5  "/><polygon fill="#856B58" points="55.4,94.6 89.9,78.7 89.9,74.7 55.4,90.1  "/><polygon fill="#856B58" points="55.4,71.9 55.4,88.4 69.3,82.2 69.3,66.3  "/><polygon fill="#856B58" points="74.7,64.2 74.7,79.7 86.4,74.4 86.4,59.5  "/><polygon fill="#856B58" points="71,65.7 71,81.4 73.1,80.5 73.1,64.8  "/><path fill="#856B58" d="M55.4,33.6v29.2l31.1-12V22.4l-2.1,0.8v2.6l-2.7,1.2v-2.8l-3,1.1v2.4l-2.7,1.2v-2.6l-3,1.1v2l-2.7,1.2v-2.2   l-3.1,1.1v2.2l-2.7,1.2v-2.4l-3.5,1.3v2.3L58.2,35v-2.5L55.4,33.6z M76.1,31.3l4.2-1.9v6.7l-4.2,1.8V31.3z M74.8,40.2l7.2-3.2v1.4   l-7.2,3.2V40.2z M80.3,41.8v6.7l-4.2,1.8v-6.6L80.3,41.8z M74.8,52.6l7.2-3.2v1.4l-7.2,3.2V52.6z M62.3,36.4l4.2-1.9v6.7L62.3,43   V36.4z M61,45.2l7.2-3.2v1.4L61,46.6V45.2z M66.4,46.8v6.7l-4.2,1.8v-6.6L66.4,46.8z M61,57.7l7.2-3.2v1.4L61,59V57.7z"/><polygon fill="#856B58" points="56.2,24.5 56.2,31.5 89.9,19.2 89.9,12.2  "/><path fill="#856B58" d="M31.3,31.7v-7.1L10.1,18v7l21.3,7.1C31.3,32,31.3,31.8,31.3,31.7z"/><polygon fill="#856B58" points="14.8,79.1 14.8,64.3 12.6,63.4 12.6,77.9  "/><polygon fill="#856B58" points="29.5,86.6 32.1,88 32.1,71.9 29.5,70.8  "/><polygon fill="#856B58" points="27.9,85.8 27.9,70.1 16.4,65.1 16.4,79.9  "/><rect x="33" y="25.1" fill="#856B58" width="21.6" height="6.6"/><rect x="33.8" y="72.1" fill="#856B58" width="2.7" height="16.7"/><path fill="#856B58" d="M38.2,72.1v16.7h11.4V72.1H38.2z M40.2,83.9c-0.4,0-0.7-0.3-0.7-0.7c0-0.4,0.3-0.7,0.7-0.7   c0.4,0,0.7,0.3,0.7,0.7C40.9,83.6,40.6,83.9,40.2,83.9z M43.1,80.3h-3.4v-2.7h3.4V80.3z M43.1,76.4h-3.4v-2.7h3.4V76.4z M47.8,80.3   h-3.4v-2.7h3.4V80.3z M47.8,76.4h-3.4v-2.7h3.4V76.4z"/><rect x="51.2" y="72.1" fill="#856B58" width="2.5" height="16.7"/><polygon fill="#856B58" points="55.4,70.1 89.9,56.3 89.9,51.7 55.4,65.6  "/><polygon fill="#856B58" points="32,65.9 10.1,56.3 10.1,60.5 32,70  "/><polygon fill="#856B58" points="33.7,66.1 33.7,70.5 33.8,70.5 53.7,70.5 53.7,66.1 33.8,66.1  "/></g></svg>